PathFileType	4	(X/Y/Z)	Patient4_TMGait_0pt3_03_right_03.trc.trc
DataRate	CameraRate	NumFrames	NumMarkers	Units	OrigDataRate	OrigDataStartFrame	OrigNumFrames
51.470588235294	51.470588235294	4	33	mm	51.470588235294	53	       141
Frame#	Time	Sacral			L.Shoulder			Chest			R.Shoulder			Neck			R.ASIS			L.ASIS			R.Thigh.Superior			R.Thigh.Lateral			R.Thigh.Inferior			R.Patella			L.Thigh.Superior			L.Thigh.Lateral			L.Thigh.Inferior			L.Patella			L.Shank.Superior			L.Shank.Lateral			L.Shank.Inferior			R.Shank.Superior			R.Shank.Lateral			R.Shank.Inferior			R.Heel			R.Midfoot.Superior			R.Midfoot.Lateral			R.Toe			L.Heel			L.Midfoot.Lateral			L.Midfoot.Superior			L.Toe			L.Elbow			L.Wrist			R.Elbow			R.Wrist			
		X1	Y1	Z1	X2	Y2	Z2	X3	Y3	Z3	X4	Y4	Z4	X5	Y5	Z5	X6	Y6	Z6	X7	Y7	Z7	X8	Y8	Z8	X9	Y9	Z9	X10	Y10	Z10	X11	Y11	Z11	X12	Y12	Z12	X13	Y13	Z13	X14	Y14	Z14	X15	Y15	Z15	X16	Y16	Z16	X17	Y17	Z17	X18	Y18	Z18	X19	Y19	Z19	X20	Y20	Z20	X21	Y21	Z21	X22	Y22	Z22	X23	Y23	Z23	X24	Y24	Z24	X25	Y25	Z25	X26	Y26	Z26	X27	Y27	Z27	X28	Y28	Z28	X29	Y29	Z29	X30	Y30	Z30	X31	Y31	Z31	X32	Y32	Z32	X33	Y33	Z33	

53	6.500285714286	738.881321187503	998.368501868584	548.382138943156	907.047419684103	1430.371918911610	361.638484517678	1011.793503861449	1365.074230493645	522.262006347542	928.307453687228	1434.590762510861	697.554886350253	884.118641096855	1491.934393245357	520.435270447439	974.594191683483	938.734624926109	657.577791377849	950.091361691250	961.735639484169	385.060390397167	1016.918535038120	737.581718497229	620.521524787727	936.122228044899	623.859271816710	674.340136709569	1013.161927379723	575.579124429902	591.900647039681	1013.083721337378	483.978624481003	593.794218014842	1026.608135851202	764.699623024593	412.506175062183	969.830868365301	639.333558774422	336.604640734621	1068.382086109332	571.240309706062	398.569006486953	1075.529025792910	484.181366882694	389.446351541592	1012.280088918143	419.709802724427	378.073242913744	873.048765567803	366.986919665920	333.895644423236	877.792476739641	233.803497135106	379.306949796712	975.251389142759	396.537243642857	596.692338986795	896.634335118176	296.776287284678	656.425227186984	926.798949468471	201.846427363831	587.483450380428	777.737338067042	44.012648556567	555.475540448179	949.827116924602	95.654353555697	589.972796848204	861.529579735406	37.372057418331	629.268266814324	1069.854564088171	41.325509538675	617.906681884293	699.266567974414	139.047428487549	423.418931451691	756.027563303266	114.896359067593	333.997553311977	859.707092023837	137.846142503042	350.338466091943	951.434779473122	45.437094124442	301.183476809064	915.635582878013	1075.457726390331	247.054054077779	1035.096631386128	845.174777136713	232.574898682109	941.571901601866	1085.872607404102	823.036515006232	1054.395376753827	854.427161271841	863.549776067334	
54	6.519714285714	737.008888040389	998.067856778330	550.549710660003	903.501666914930	1429.066126139560	361.231485969487	1010.367844753708	1364.264657017347	520.695299507525	929.522063313757	1434.465947231410	697.000519279568	883.134358991209	1491.437281120378	520.049300368616	973.442758414754	937.972823623900	657.353908418896	946.490786904360	961.715189717782	385.167219383732	1015.009892825216	736.739417614933	619.588899085004	934.678076515349	623.033273147743	673.986619912913	1010.809067405972	574.731678983399	590.775105976176	1010.496660127271	482.953110061353	592.533439887246	1025.208791850307	766.704573195247	413.181997527974	970.356425187707	640.745997811845	337.189445568464	1069.215037828845	574.043606318759	399.753042011800	1078.606998982037	488.013240699220	390.473885629713	1018.539347924490	421.999437564261	378.303293482793	882.588087846371	362.445835109951	333.666352846742	894.535044505929	229.339413044833	378.373022147018	972.028438458674	395.605208779767	595.795530575599	893.087901835321	296.333118662895	655.871134880657	922.120082796542	201.261134179694	586.870482042439	771.891712069269	43.967589649508	555.503020620555	944.115750738784	95.735204804720	590.029699925869	855.685687508493	37.357696015382	629.309770778764	1064.016483823802	41.251103114259	617.924414819939	721.807347857807	124.645980348766	422.242488361964	779.665468273885	104.446452687351	332.456335926176	881.803933271148	132.844746524222	348.823060507040	978.335702916482	46.221631529133	298.793599918252	897.205154416269	1072.207040735550	252.265543263422	996.094960655561	832.102065595702	239.589749667611	954.750620025185	1086.012266634015	822.232453202550	1081.057554511580	861.377927441555	860.083562046167	
55	6.539142857143	735.065068995401	998.055965141039	552.479049332519	899.971975080404	1427.927199999296	360.568976034958	1008.990244484260	1363.570740577673	518.797058743720	930.868405502949	1434.532672555209	696.078206066447	882.233175932083	1491.066899440410	519.377600509889	972.184463547853	937.288728983121	656.838754524388	942.773778623911	961.779649037835	385.020359996647	1012.672979850628	735.879820832225	618.418610825044	932.764856859534	622.328631477519	673.552775703286	1007.818398569534	573.911499032394	589.491243589322	1007.174278381424	482.067541897086	591.159744701976	1023.251188878498	768.530737287745	413.728336585977	970.155370788665	642.139487427164	337.535802716081	1069.004782012378	576.612663047747	400.845683855336	1080.657383009974	491.905243764512	391.444839507447	1024.199324043657	424.402614740165	378.488424854911	892.483002245605	357.362678696633	332.907571373756	912.116648178434	224.843374418861	377.286707380811	968.253245300424	394.789192482032	594.868096225050	889.136620148468	295.906880409627	655.317499130727	917.190706179255	200.735112601560	586.281660214193	766.022352599187	43.880101756913	555.544078859473	938.400824727644	95.868626696550	590.147850462768	849.818243681400	37.324994137875	629.365874340599	1058.153514360743	41.245508029001	617.910159432025	745.965792711593	109.983753275412	420.351089527699	805.296954440051	93.517642958134	330.680665914504	905.514708615393	127.660782099810	347.432579611832	1007.049598226296	47.124893326023	297.552444469802	878.471048506105	1069.996125217397	257.177990074678	957.216906998685	822.280709071546	246.919424535520	967.629274339660	1086.894124829830	821.123290875162	1108.111963080530	870.487881860332	855.456911684893	
56	6.558571428571	733.085336693420	998.353926563847	554.167956128507	896.463370647866	1427.013056154285	359.671161915426	1007.661152882883	1363.025454487937	516.577869695706	932.337209921268	1434.797982805864	694.799752661889	881.409376685421	1490.850829669315	518.443911952259	970.856060184336	936.723461797039	656.050822782450	939.013709246704	961.948428170111	384.613506269928	1009.922787770164	735.027739675156	617.078633172452	930.341853602950	621.781933096359	673.086588080177	1004.167627360930	573.139801119014	588.133362330450	1003.077898436527	481.349867199523	589.766583276674	1020.757815750588	770.159724073397	414.133742340767	969.235187242061	643.505750240351	337.596308471088	1067.809657853894	578.911347806052	401.748025802057	1081.690829064688	495.809081799746	392.274182825967	1029.181040825877	426.946827583886	378.605081408819	902.639862069638	352.050004648289	331.669295166918	930.204861028948	220.706183592839	376.148329348740	963.893486906937	394.117814655049	593.975739815647	884.738025392083	295.516477606749	654.807190887663	911.990642682373	200.287933654698	585.755851629303	760.125927625655	43.757271172382	555.601302634149	932.663859142732	96.032357127968	590.300292802834	843.927079831350	37.275871528531	629.437189078474	1052.265061549138	41.307376250922	617.866132598425	771.300960451390	95.867825071657	417.949670612524	832.433353415110	82.792343706873	328.872404911879	930.376667173504	122.743298132415	346.310670000596	1036.891555702579	48.349668565954	297.618619102790	859.663752172860	1068.933802577071	261.667946459176	919.144751578005	815.677693215269	254.415346887828	980.204864541250	1088.508368439624	819.735486184122	1135.296884675739	881.880760934682	849.723163467997	
